<?xml version="1.0"?>
<!--Icons from directory ""-->
<svg xmlns="http://www.w3.org/2000/svg" width="64" height="256" viewBox="0 0 64 256"><svg version="1.0" width="64" height="64" viewBox="5.5 -3.5 64 64" id="by" y="0"><circle fill="#FFF" cx="37.637" cy="28.806" r="28.276"/><path d="M37.443-3.5c8.988 0 16.57 3.085 22.742 9.257C66.393 11.967 69.5 19.548 69.5 28.5c0 8.991-3.049 16.476-9.145 22.456-6.476 6.363-14.113 9.544-22.912 9.544-8.649 0-16.153-3.144-22.514-9.43C8.644 44.784 5.5 37.262 5.5 28.5c0-8.761 3.144-16.342 9.429-22.742C21.101-.415 28.604-3.5 37.443-3.5zm.114 5.772c-7.276 0-13.428 2.553-18.457 7.657-5.22 5.334-7.829 11.525-7.829 18.572 0 7.086 2.59 13.22 7.77 18.398 5.181 5.182 11.352 7.771 18.514 7.771 7.123 0 13.334-2.607 18.629-7.828 5.029-4.838 7.543-10.952 7.543-18.343 0-7.276-2.553-13.465-7.656-18.571-5.104-5.104-11.276-7.656-18.514-7.656zm8.572 18.285v13.085h-3.656v15.542h-9.944V33.643h-3.656V20.557c0-.572.2-1.057.599-1.457.401-.399.887-.6 1.457-.6h13.144c.533 0 1.01.2 1.428.6.417.4.628.886.628 1.457zm-13.087-8.228c0-3.008 1.485-4.514 4.458-4.514s4.457 1.504 4.457 4.514c0 2.971-1.486 4.457-4.457 4.457s-4.458-1.486-4.458-4.457z"/></svg><svg version="1.0" width="64" height="64" viewBox="5.5 -3.5 64 64" id="cc" y="64"><circle fill="#FFF" cx="37.785" cy="28.501" r="28.836"/><path d="M37.441-3.5c8.951 0 16.572 3.125 22.857 9.372 3.008 3.009 5.295 6.448 6.857 10.314 1.561 3.867 2.344 7.971 2.344 12.314 0 4.381-.773 8.486-2.314 12.313-1.543 3.828-3.82 7.21-6.828 10.143-3.123 3.085-6.666 5.448-10.629 7.086-3.961 1.638-8.057 2.457-12.285 2.457s-8.276-.808-12.143-2.429c-3.866-1.618-7.333-3.961-10.4-7.027-3.067-3.066-5.4-6.524-7-10.372S5.5 32.767 5.5 28.5c0-4.229.809-8.295 2.428-12.2 1.619-3.905 3.972-7.4 7.057-10.486C21.08-.394 28.565-3.5 37.441-3.5zm.116 5.772c-7.314 0-13.467 2.553-18.458 7.657-2.515 2.553-4.448 5.419-5.8 8.6a25.204 25.204 0 00-2.029 9.972c0 3.429.675 6.734 2.029 9.913 1.353 3.183 3.285 6.021 5.8 8.516 2.514 2.496 5.351 4.399 8.515 5.715a25.652 25.652 0 009.943 1.971c3.428 0 6.75-.665 9.973-1.999 3.219-1.335 6.121-3.257 8.713-5.771 4.99-4.876 7.484-10.99 7.484-18.344 0-3.543-.648-6.895-1.943-10.057-1.293-3.162-3.18-5.98-5.654-8.458-5.146-5.143-11.335-7.715-18.573-7.715zm-.401 20.915l-4.287 2.229c-.458-.951-1.019-1.619-1.685-2-.667-.38-1.286-.571-1.858-.571-2.856 0-4.286 1.885-4.286 5.657 0 1.714.362 3.084 1.085 4.113.724 1.029 1.791 1.544 3.201 1.544 1.867 0 3.181-.915 3.944-2.743l3.942 2c-.838 1.563-2 2.791-3.486 3.686-1.484.896-3.123 1.343-4.914 1.343-2.857 0-5.163-.875-6.915-2.629-1.752-1.752-2.628-4.19-2.628-7.313 0-3.048.886-5.466 2.657-7.257 1.771-1.79 4.009-2.686 6.715-2.686 3.963-.002 6.8 1.541 8.515 4.627zm18.457 0l-4.229 2.229c-.457-.951-1.02-1.619-1.686-2-.668-.38-1.307-.571-1.914-.571-2.857 0-4.287 1.885-4.287 5.657 0 1.714.363 3.084 1.086 4.113.723 1.029 1.789 1.544 3.201 1.544 1.865 0 3.18-.915 3.941-2.743l4 2c-.875 1.563-2.057 2.791-3.541 3.686a9.233 9.233 0 01-4.857 1.343c-2.896 0-5.209-.875-6.941-2.629-1.736-1.752-2.602-4.19-2.602-7.313 0-3.048.885-5.466 2.658-7.257 1.77-1.79 4.008-2.686 6.713-2.686 3.962-.002 6.783 1.541 8.458 4.627z"/></svg><svg version="1.0" width="64" height="64" viewBox="5.5 -3.5 64 64" id="nc-eu" y="128"><circle fill="#FFF" cx="36.924" cy="28.403" r="28.895"/><path d="M60.205 5.779C54.012-.407 46.428-3.5 37.459-3.5c-8.865 0-16.367 3.091-22.508 9.279C8.649 12.18 5.5 19.752 5.5 28.5c0 8.745 3.149 16.266 9.451 22.558 6.301 6.296 13.802 9.442 22.508 9.442 8.809 0 16.446-3.175 22.907-9.521C66.455 44.952 69.5 37.459 69.5 28.5c-.001-8.961-3.099-16.536-9.295-22.721zM56.199 46.82c-5.286 5.226-11.508 7.837-18.66 7.837-7.156 0-13.325-2.587-18.504-7.761-5.179-5.174-7.77-11.306-7.77-18.397 0-3 .474-5.837 1.41-8.51l8.479 3.754h-.611v3.803h3.001c0 .538-.054 1.073-.054 1.608v.912h-2.947v3.803h3.481c.483 2.84 1.555 5.144 3 6.965 3 3.965 7.822 6.106 13.071 6.106 3.43 0 6.533-1.017 8.357-2.036l-1.287-5.944c-1.125.589-3.641 1.391-6.104 1.391-2.68 0-5.196-.802-6.911-2.731-.803-.91-1.392-2.144-1.767-3.75h11.646l16.549 7.325c-1.145 2.03-2.6 3.907-4.379 5.625zM35.387 30.065l-.07-.054.12.054h-.05zm9.964-2.52h.479v-3.803h-9.07l-3.685-1.63c.317-.713.693-1.351 1.131-1.85 1.661-2.039 4.017-2.895 6.589-2.895 2.357 0 4.553.696 5.945 1.285l1.5-6.108c-1.93-.855-4.768-1.605-8.035-1.605-5.035 0-9.321 2.035-12.375 5.463-.678.783-1.266 1.662-1.799 2.591l-10.523-4.657a29.494 29.494 0 013.608-4.398c5.021-5.12 11.16-7.681 18.424-7.681 7.26 0 13.429 2.56 18.502 7.681 5.124 5.066 7.687 11.252 7.687 18.562 0 2.407-.272 4.678-.812 6.82l-17.566-7.775z"/></svg><svg width="64" height="64" id="nd" y="192"><circle fill="#FFF" cx="32.064" cy="31.788" r="29.013"/><path d="M31.944 0c8.952 0 16.533 3.105 22.744 9.314C60.895 15.486 64 23.046 64 32s-3.049 16.457-9.146 22.514C48.418 60.838 40.78 64 31.943 64c-8.65 0-16.153-3.143-22.514-9.43C3.144 48.286 0 40.762 0 32.001c0-8.724 3.144-16.285 9.43-22.685C15.64 3.106 23.144 0 31.943 0zm.117 5.771c-7.276 0-13.43 2.57-18.459 7.715-5.22 5.297-7.83 11.468-7.83 18.514 0 7.125 2.59 13.257 7.771 18.4 5.181 5.182 11.352 7.77 18.516 7.77 7.123 0 13.332-2.607 18.627-7.827 5.028-4.876 7.543-10.99 7.543-18.343 0-7.313-2.554-13.484-7.657-18.514-5.067-5.144-11.238-7.715-18.511-7.715zm12.056 18.685v5.485H20.86v-5.485h23.257zm0 10.287v5.482H20.86v-5.482h23.257z"/></svg></svg>
